<svg xmlns="http://www.w3.org/2000/svg" viewBox="0 0 512 512" role="img" aria-label="무한사격장 favicon">
  <rect width="512" height="512" fill="#ffffff"/>
  <g transform="translate(36 176)" stroke="#101418" stroke-width="10" stroke-linejoin="round" stroke-linecap="round">
    <rect x="0" y="70" width="92" height="42" fill="#30363a"/>
    <rect x="16" y="82" width="28" height="18" fill="#0b0d0e" stroke="none"/>
    <rect x="82" y="80" width="162" height="22" fill="#1f2528"/>
    <rect x="222" y="54" width="154" height="76" fill="#697076"/>
    <rect x="282" y="70" width="120" height="86" fill="#3d4448"/>
    <rect x="350" y="74" width="46" height="28" fill="#00a0d7" stroke="#0b0d0e"/>
    <rect x="250" y="108" width="120" height="24" fill="#252a2d"/>
    <rect x="292" y="132" width="44" height="74" fill="#1f2427"/>
    <path d="M384 88h62v26h-42v76h-54v-28h26z" fill="#5f666b"/>
    <path d="M352 132h34l22 70h-42z" fill="#24292c"/>
    <rect x="246" y="18" width="166" height="40" rx="4" fill="#242a2d"/>
    <rect x="236" y="10" width="54" height="56" rx="4" fill="#30363a"/>
    <rect x="366" y="10" width="58" height="56" rx="4" fill="#30363a"/>
    <rect x="306" y="-20" width="72" height="46" rx="4" fill="#202528"/>
    <rect x="326" y="-44" width="34" height="26" fill="#2f3538"/>
    <rect x="262" y="86" width="22" height="18" fill="#141719" stroke="none"/>
    <rect x="306" y="86" width="22" height="18" fill="#141719" stroke="none"/>
    <rect x="52" y="62" width="210" height="14" fill="#111517" stroke="none"/>
  </g>
</svg>
